<?xml version="1.0" standalone="no"?>
<!DOCTYPE svg PUBLIC "-//W3C//DTD SVG 20010904//EN"
 "http://www.w3.org/TR/2001/REC-SVG-20010904/DTD/svg10.dtd">
<svg version="1.0" xmlns="http://www.w3.org/2000/svg"
 width="1112.000000pt" height="1112.000000pt" viewBox="0 0 1112.000000 1112.000000"
 preserveAspectRatio="xMidYMid meet">
<metadata>
Created by potrace 1.14, written by Peter Selinger 2001-2017
</metadata>
<g transform="translate(0.000000,1112.000000) scale(0.100000,-0.100000)"
fill="#000000" stroke="none">
<path d="M4578 11115 c-2 -2 -59 -6 -128 -9 -69 -3 -154 -8 -190 -11 -137 -11
-166 -14 -200 -19 -19 -3 -60 -8 -90 -11 -85 -9 -179 -21 -225 -29 -16 -3 -50
-8 -75 -11 -25 -4 -65 -11 -89 -16 -24 -5 -46 -7 -49 -5 -2 3 -12 1 -22 -4 -9
-5 -32 -11 -51 -14 -60 -9 -103 -17 -134 -26 -16 -5 -43 -11 -60 -14 -16 -2
-52 -9 -80 -16 -27 -7 -57 -13 -65 -15 -8 -2 -15 -4 -15 -5 0 -1 -11 -4 -25
-6 -38 -7 -200 -51 -335 -91 -66 -20 -126 -36 -132 -36 -7 0 -13 -4 -13 -9 0
-4 -10 -8 -23 -8 -13 0 -27 -3 -31 -7 -3 -4 -12 -8 -19 -9 -23 -4 -222 -86
-289 -120 -38 -18 -68 -30 -68 -26 0 4 -4 2 -8 -3 -4 -6 -29 -24 -57 -39 -65
-38 -156 -97 -173 -113 -7 -7 -16 -13 -20 -13 -4 0 -21 -13 -39 -28 -17 -15
-46 -38 -64 -52 -53 -41 -230 -223 -245 -252 -8 -16 -19 -28 -24 -28 -5 0 -21
-20 -36 -45 -14 -25 -30 -45 -36 -45 -5 0 -7 -4 -4 -9 4 -5 3 -11 -1 -13 -11
-4 -63 -86 -63 -98 0 -5 -4 -10 -10 -10 -5 0 -10 -4 -10 -9 0 -5 -15 -36 -34
-69 -19 -33 -32 -63 -28 -66 3 -3 0 -6 -6 -6 -7 0 -12 -4 -12 -10 0 -5 -12
-35 -26 -67 -46 -104 -51 -117 -74 -183 -12 -36 -23 -69 -25 -75 -1 -5 -5 -17
-8 -25 -9 -23 -27 -85 -32 -109 -3 -11 -7 -29 -10 -38 -15 -58 -22 -93 -19
-93 3 0 0 -9 -6 -19 -5 -11 -12 -37 -16 -58 -3 -21 -12 -75 -20 -120 -14 -77
-19 -111 -29 -193 -2 -19 -6 -55 -9 -80 -3 -25 -8 -76 -11 -115 -3 -38 -9
-104 -12 -145 -9 -103 -9 -843 1 -1015 10 -191 13 -245 21 -350 3 -49 8 -124
10 -165 2 -41 4 -75 5 -75 1 0 3 -20 5 -45 8 -100 17 -228 20 -275 3 -50 10
-134 21 -253 3 -34 8 -88 9 -120 2 -31 7 -97 11 -147 3 -49 7 -114 8 -142 0
-29 3 -53 6 -53 3 0 6 -26 6 -58 1 -31 4 -102 8 -157 22 -367 27 -914 12
-1330 -5 -126 -10 -273 -12 -325 -8 -256 -13 -330 -20 -341 -5 -8 -3 -9 6 -4
9 6 11 4 5 -5 -4 -7 -9 -65 -10 -129 -1 -65 -5 -123 -9 -129 -4 -7 -3 -12 3
-12 6 0 7 -11 3 -27 -8 -33 -7 -494 2 -633 11 -185 15 -236 21 -280 16 -132
15 -121 40 -252 5 -28 10 -52 20 -95 3 -13 7 -31 9 -41 2 -9 10 -37 17 -62 15
-55 14 -52 22 -70 3 -8 15 -44 28 -80 12 -36 31 -83 42 -105 11 -22 20 -42 20
-45 0 -7 41 -94 47 -100 3 -3 16 -25 29 -50 36 -67 114 -180 173 -252 48 -59
214 -227 270 -274 98 -82 328 -244 348 -244 5 0 10 -3 10 -7 0 -5 10 -13 23
-18 34 -16 111 -59 117 -65 3 -4 37 -22 75 -40 39 -19 72 -38 73 -42 2 -5 9
-8 16 -8 7 0 40 -13 72 -30 96 -48 264 -119 264 -112 0 4 4 3 8 -3 4 -5 30
-18 57 -28 28 -10 75 -27 105 -38 30 -11 62 -23 70 -26 8 -3 17 -7 20 -7 3 -1
11 -5 18 -9 6 -5 12 -6 12 -3 0 3 19 -2 43 -10 23 -9 49 -17 57 -19 80 -21
146 -41 150 -45 3 -3 16 -6 30 -8 14 -2 61 -12 105 -23 44 -11 96 -22 115 -25
19 -3 44 -8 55 -11 11 -3 34 -7 50 -9 17 -1 45 -5 63 -8 139 -25 244 -31 552
-31 268 0 342 3 450 20 19 2 51 7 70 9 78 10 155 23 155 26 0 1 11 3 25 5 31
4 168 37 270 63 101 27 344 108 398 133 24 11 57 22 73 26 16 3 29 9 29 14 0
5 7 9 15 9 14 0 194 81 268 121 20 11 37 17 37 12 0 -4 4 -3 8 2 4 6 16 15 27
21 11 6 65 35 120 64 55 29 102 57 103 62 2 4 12 8 22 8 10 0 20 4 22 8 2 4
51 37 111 72 59 36 107 68 107 72 0 5 4 8 9 8 11 0 98 57 119 77 7 7 18 13 23
13 5 0 17 6 26 14 10 8 92 69 183 137 91 67 173 130 183 140 10 11 21 19 25
19 4 0 23 15 43 33 21 17 48 41 60 51 65 52 145 123 156 136 7 8 13 12 13 9 0
-4 23 15 50 42 28 27 52 49 54 49 14 0 574 552 721 711 139 150 150 163 201
220 27 30 76 86 109 124 33 38 69 79 80 91 11 12 36 41 55 64 19 24 40 48 47
55 10 11 96 113 133 159 8 10 25 29 38 42 12 13 22 26 22 29 0 3 9 16 21 28
74 78 320 399 364 475 6 9 12 19 15 22 3 3 19 28 35 55 17 28 34 58 40 67 5 9
25 45 44 80 18 35 38 66 43 69 5 3 9 9 8 13 -1 9 32 80 41 86 4 3 9 14 11 25
1 11 5 22 8 25 5 4 31 57 35 70 1 3 11 27 24 54 45 101 125 316 163 436 34
108 32 103 43 152 4 21 10 38 14 38 3 0 6 10 7 23 0 12 10 58 22 102 12 44 24
91 26 105 3 14 5 25 6 25 2 0 5 15 34 175 37 207 44 251 52 325 2 22 6 54 8
70 10 71 20 174 33 350 9 129 9 832 -1 920 -3 33 -8 94 -11 135 -3 41 -7 93
-10 115 -3 22 -7 63 -10 90 -2 28 -6 66 -9 86 -3 20 -7 59 -10 85 -6 47 -9 71
-21 139 -3 17 -8 50 -11 75 -11 78 -12 85 -14 85 -2 0 -7 24 -14 72 -3 21 -8
49 -11 63 -4 14 -9 39 -11 55 -3 17 -19 89 -35 160 -38 168 -35 154 -59 243
-12 42 -24 87 -26 99 -2 12 -9 35 -15 50 -6 16 -13 39 -16 53 -2 14 -18 66
-35 115 -16 50 -32 98 -34 109 -2 10 -8 24 -15 32 -6 8 -9 14 -6 14 4 0 -28
92 -58 165 -5 11 -9 22 -10 25 -5 14 -22 55 -61 147 -24 56 -44 106 -44 112 0
5 -3 11 -7 13 -5 2 -28 44 -51 93 -64 133 -242 431 -271 455 -3 3 -19 23 -35
45 -70 95 -199 228 -286 297 -41 32 -80 63 -87 68 -7 6 -17 10 -23 10 -5 0
-10 5 -10 10 0 6 -4 10 -10 10 -5 0 -33 14 -61 31 -29 17 -107 58 -173 92 -67
34 -123 64 -126 67 -3 4 -31 17 -63 29 -31 13 -60 27 -63 32 -3 5 -14 9 -25 9
-10 0 -19 5 -19 10 0 6 -5 10 -11 10 -6 0 -63 23 -128 52 -156 69 -303 129
-318 130 -7 1 -13 5 -13 10 0 4 -9 8 -20 8 -11 0 -28 4 -38 9 -9 5 -35 16 -57
24 -22 8 -74 27 -115 43 -41 15 -84 29 -95 31 -11 2 -29 7 -40 12 -31 14 -99
35 -107 33 -5 -1 -8 2 -8 6 0 5 -6 9 -13 9 -11 0 -73 17 -172 48 -22 7 -69 20
-105 30 -36 9 -72 19 -80 23 -8 3 -26 7 -40 9 -14 2 -36 8 -50 13 -14 5 -65
18 -115 30 -49 11 -101 23 -115 27 -14 3 -34 8 -45 10 -11 2 -51 10 -90 19
-78 17 -105 22 -137 28 -13 1 -39 7 -58 11 -19 4 -46 9 -60 11 -14 1 -25 3
-25 4 0 1 -13 3 -30 5 -16 1 -75 10 -130 19 -130 22 -193 31 -300 41 -75 8
-102 12 -114 19 -5 4 -12 2 -16 -4 -4 -6 -11 -7 -17 -4 -10 7 -51 12 -158 19
-36 3 -99 7 -140 10 -76 6 -717 14 -722 10z"/>
</g>
</svg>
